<?xml version="1.0" encoding="UTF-8" standalone="no"?>
<svg width="58px" height="58px" viewBox="0 0 58 58" version="1.1" xmlns="http://www.w3.org/2000/svg" xmlns:xlink="http://www.w3.org/1999/xlink">
    <!-- Generator: Sketch 40.1 (33804) - http://www.bohemiancoding.com/sketch -->
    <title>260 - Add Calendar (interaction, communication, interface, flat)</title>
    <desc>Created with Sketch.</desc>
    <defs></defs>
    <g id="Page-1" stroke="none" stroke-width="1" fill="none" fill-rule="evenodd">
        <g id="Icons" transform="translate(-120.000000, -4017.000000)">
            <g id="Add-Calendar" transform="translate(120.000000, 4017.000000)">
                <polyline id="Fill-695" fill="#F15465" points="46 4 46 8 39 8 39 4 15 4 15 8 8 8 8 4 0 4 0 15 54 15 54 4 46 4"></polyline>
                <polyline id="Fill-696" fill="#EFECDE" points="8 15 0 15 0 58 54 58 54 15 8 15"></polyline>
                <path d="M37,22 L8,22 L8,51 L46,51 L46,22 L37,22 L37,22 Z M28,24 L35,24 L35,31 L28,31 L28,24 Z M28,33 L35,33 L35,40 L28,40 L28,33 Z M19,33 L26,33 L26,40 L19,40 L19,33 Z M19,24 L26,24 L26,31 L19,31 L19,24 Z M10,24 L17,24 L17,31 L10,31 L10,24 Z M10,33 L17,33 L17,40 L10,40 L10,33 Z M10,42 L17,42 L17,49 L10,49 L10,42 Z M19,42 L26,42 L26,49 L19,49 L19,42 Z M28,42 L35,42 L35,49 L28,49 L28,42 Z M37,42 L44,42 L44,49 L37,49 L37,42 Z M37,33 L44,33 L44,40 L37,40 L37,33 Z M37,24 L44,24 L44,31 L37,31 L37,24 Z" id="Fill-697" fill="#D5D0BB"></path>
                <polygon id="Fill-698" fill="#36495E" points="8 0 15 0 15 8 8 8"></polygon>
                <polygon id="Fill-699" fill="#36495E" points="39 0 46 0 46 8 39 8"></polygon>
                <polygon id="Fill-700" fill="#7F6E5D" points="19 33 26 33 26 40 19 40"></polygon>
                <path d="M58,45 C58,51.628 52.627,57 46,57 C39.373,57 34,51.628 34,45 C34,38.373 39.373,33 46,33 C52.627,33 58,38.373 58,45" id="Fill-2456" fill="#71C386"></path>
                <path d="M52,44 L47,44 L47,39 C47,38.448 46.552,38 46,38 C45.448,38 45,38.448 45,39 L45,44 L40,44 C39.448,44 39,44.448 39,45 C39,45.552 39.448,46 40,46 L45,46 L45,51 C45,51.552 45.448,52 46,52 C46.552,52 47,51.552 47,51 L47,46 L52,46 C52.552,46 53,45.552 53,45 C53,44.448 52.552,44 52,44" id="Fill-2457" fill="#FFFFFF"></path>
            </g>
        </g>
    </g>
</svg>