<?xml version="1.0" standalone="no"?>
<!DOCTYPE svg PUBLIC "-//W3C//DTD SVG 20010904//EN"
 "http://www.w3.org/TR/2001/REC-SVG-20010904/DTD/svg10.dtd">
<svg version="1.0" xmlns="http://www.w3.org/2000/svg"
 width="1278.000000pt" height="762.000000pt" viewBox="0 0 1278.000000 762.000000"
 preserveAspectRatio="xMidYMid meet">
<metadata>
Created by potrace 1.15, written by Peter Selinger 2001-2017
</metadata>
<g transform="translate(0.000000,762.000000) scale(0.100000,-0.100000)"
fill="#ffc904" stroke="none">
<path d="M10614 7000 c-4 -3 -7167 -13 -7294 -10 -8 0 -24 0 -35 -1 -11 0 -33
0 -50 0 -16 1 -39 1 -50 0 -11 0 -26 0 -32 0 -7 1 -21 1 -30 1 -10 0 -34 0
-53 1 -19 0 -44 0 -55 -1 -11 -1 -27 -1 -35 0 -8 0 -24 0 -35 0 -11 -1 -24 -1
-30 -1 -22 0 -151 1 -167 1 -44 -1 -231 -1 -260 0 -18 0 -42 0 -53 -1 -11 0
-49 0 -85 0 -36 1 -74 1 -85 0 -11 0 -26 0 -32 0 -7 1 -21 1 -30 1 -10 0 -34
0 -53 1 -19 0 -44 0 -55 -1 -11 -1 -27 -1 -35 0 -8 0 -24 0 -35 0 -11 -1 -24
-1 -30 -1 -42 0 -153 1 -165 0 -8 0 -31 0 -50 0 -19 0 -159 1 -310 1 -463 1
-506 -3 -613 -49 -26 -11 -51 -21 -55 -22 -4 -1 -24 -15 -45 -31 -20 -16 -37
-26 -37 -22 0 5 -32 -23 -70 -61 -39 -38 -70 -72 -70 -76 0 -4 -15 -32 -34
-63 -19 -32 -45 -90 -58 -129 l-23 -72 0 -2675 c0 -2594 1 -2677 19 -2745 10
-38 26 -81 35 -95 9 -13 15 -25 13 -27 -4 -5 29 -66 44 -81 8 -7 14 -17 14
-21 0 -10 121 -131 131 -131 4 0 14 -6 21 -14 13 -12 108 -56 183 -84 17 -6
53 -14 80 -18 41 -5 1277 -9 1395 -4 31 1 735 1 900 0 36 0 72 0 80 0 22 0
153 0 165 -1 19 0 160 1 180 2 11 0 27 0 35 -1 8 0 24 0 35 0 11 1 25 1 30 1
6 0 42 0 80 0 39 0 86 -1 105 -1 19 0 44 0 55 1 11 0 49 0 85 0 36 -1 74 -1
85 0 11 0 27 0 35 -1 8 0 24 0 35 1 11 0 34 0 50 0 17 -1 39 -1 50 0 11 0 26
0 33 0 24 -2 38 -2 112 -2 41 0 84 1 95 1 11 1 26 1 33 1 6 0 42 0 80 0 37 0
213 0 392 0 179 -1 330 -1 335 -1 6 0 1455 3 3220 5 1766 3 3224 7 3240 9 17
1 50 9 75 16 51 15 64 19 83 23 7 1 29 13 48 25 20 12 42 22 48 22 7 0 54 42
105 93 76 74 100 106 129 167 74 161 68 -102 64 2880 -3 2443 -4 2679 -19
2725 -26 79 -42 115 -50 115 -4 0 -8 9 -8 20 0 11 -4 20 -9 20 -5 0 -14 13
-21 29 -14 34 -124 148 -151 156 -11 4 -19 10 -19 14 0 5 -15 14 -32 22 -18 7
-35 16 -38 20 -9 11 -72 41 -77 35 -3 -2 -23 2 -45 10 -37 13 -110 25 -148 24
-8 0 -31 0 -50 1 -19 0 -44 0 -55 -1 -11 -1 -27 -1 -35 0 -8 0 -24 0 -35 0
-11 -1 -27 -1 -35 -1 -8 0 -76 0 -150 0 -147 -1 -639 0 -655 2 -5 0 -41 0 -80
-1 -38 0 -92 1 -118 2 -27 2 -51 1 -53 -2z m321 -309 c84 3 756 0 780 -5 139
-26 180 -46 269 -131 64 -62 97 -107 120 -165 47 -117 45 -6 46 -2615 0 -2690
4 -2512 -57 -2626 -26 -47 -184 -211 -201 -207 -4 0 -27 -8 -52 -20 -25 -11
-63 -23 -85 -27 -30 -5 -3779 -17 -4445 -14 -58 0 -235 0 -395 -1 -945 -4
-5665 -2 -5687 2 -31 6 -72 21 -148 55 -60 27 -186 149 -196 190 -4 13 -10 23
-15 23 -5 0 -9 8 -9 18 0 10 -3 22 -7 26 -31 31 -32 95 -39 2562 -4 1874 -3
2475 6 2518 11 52 40 124 74 185 17 29 128 142 134 136 3 -2 20 7 38 22 19 14
34 22 34 18 0 -4 11 0 24 9 14 8 40 18 58 20 18 3 47 8 63 12 17 3 59 6 95 5
36 -1 70 -1 75 -1 6 0 2000 2 4433 4 2433 2 4425 6 4427 7 2 2 147 3 322 1
175 -1 327 -2 338 -1z"/>
<path d="M4276 4562 c-2 -1 -46 -5 -97 -8 -93 -4 -140 -9 -189 -19 -14 -2 -34
-6 -45 -8 -19 -4 -20 -14 -26 -343 -3 -187 -3 -520 0 -739 6 -391 6 -400 26
-402 11 -1 36 -4 55 -8 165 -28 471 -33 595 -10 17 3 44 7 62 9 17 2 36 7 42
10 6 4 20 9 31 12 11 2 29 6 40 8 11 3 26 8 33 13 6 4 17 8 24 9 7 1 26 12 43
24 16 12 30 18 30 15 0 -4 18 8 40 25 22 17 40 28 40 24 0 -5 23 14 51 41 88
86 157 210 195 350 23 87 27 346 5 440 -16 73 -57 178 -88 225 -13 19 -29 43
-36 54 -25 38 -94 103 -142 134 -27 17 -55 36 -61 40 -20 18 -106 52 -115 46
-5 -3 -9 0 -9 6 0 6 -4 8 -10 5 -5 -3 -10 -3 -10 2 0 4 -10 9 -22 10 -13 1
-43 6 -68 12 -25 6 -72 14 -105 17 -66 6 -285 11 -289 6z m274 -353 c39 -3
166 -64 184 -87 12 -15 29 -33 38 -41 10 -9 18 -21 18 -28 0 -7 4 -13 9 -13 5
0 12 -10 15 -22 32 -110 38 -144 38 -228 1 -143 -37 -252 -110 -322 -38 -37
-102 -77 -134 -84 -10 -2 -28 -7 -40 -10 -34 -9 -103 -15 -188 -17 l-75 -2 -3
431 -2 431 117 -3 c65 -2 125 -4 133 -5z"/>
<path d="M6025 4550 c-11 -4 -32 -5 -46 -4 -21 3 -28 -2 -33 -19 -10 -39 -6
-908 4 -997 15 -120 20 -144 31 -155 5 -5 9 -16 9 -24 0 -21 32 -91 42 -91 4
0 8 -6 8 -12 0 -24 84 -118 105 -118 8 0 15 -5 15 -10 0 -6 11 -15 25 -20 14
-5 25 -14 25 -19 0 -8 108 -53 140 -57 23 -3 92 -15 120 -20 14 -3 34 -4 45
-4 11 1 26 1 33 1 6 -1 18 -1 25 -2 11 0 106 8 167 14 14 2 30 6 35 9 9 5 82
31 95 33 40 8 113 61 175 127 41 43 74 82 73 86 -1 4 9 30 21 57 12 28 31 91
42 140 17 82 19 137 19 588 0 466 -1 497 -17 498 -10 0 -97 1 -193 1 l-175 0
-5 -513 c-4 -370 -9 -524 -18 -551 -12 -36 -96 -122 -124 -127 -7 -1 -49 -3
-93 -5 -109 -3 -155 17 -200 86 -36 57 -39 98 -44 607 l-6 504 -60 -1 c-169
-4 -203 -4 -211 0 -5 3 -18 2 -29 -2z"/>
<path d="M7965 4547 c-12 -6 -13 -128 -8 -749 4 -514 10 -746 17 -754 9 -9 98
-16 171 -13 11 0 27 0 35 -1 8 0 24 0 35 1 11 0 32 0 48 0 36 -1 6 -1 417 2
l365 2 3 168 c2 130 0 167 -10 168 -7 0 -166 1 -353 2 l-340 2 -3 140 -3 141
288 0 288 0 3 167 2 167 -32 1 c-18 0 -148 2 -288 2 l-255 2 0 110 0 109 120
-2 c66 -1 127 -2 135 -2 8 0 47 0 85 0 39 0 75 0 80 0 6 0 60 1 120 3 l110 2
0 162 c0 89 -3 165 -7 169 -10 10 -1006 11 -1023 1z"/>
</g>
</svg>
