<?xml version="1.0" encoding="UTF-8"?>
<svg width="58px" height="58px" viewBox="0 0 58 58" version="1.1" xmlns="http://www.w3.org/2000/svg" xmlns:xlink="http://www.w3.org/1999/xlink">
    <!-- Generator: Sketch 43.2 (39069) - http://www.bohemiancoding.com/sketch -->
    <title>42 -Search Users- (user, people, group, team)</title>
    <desc>Created with Sketch.</desc>
    <defs></defs>
    <g id="Page-1" stroke="none" stroke-width="1" fill="none" fill-rule="evenodd">
        <g id="Icons" transform="translate(-241.000000, -830.000000)">
            <g id="42--Search-Users--(user,-people,-group,-team)" transform="translate(241.000000, 830.000000)">
                <path d="M57.4141,54.5859 L41.0001,38.1719 C40.1371,39.1909 39.1911,40.1369 38.1721,40.9999 L54.5861,57.4139 C55.3671,58.1949 56.6331,58.1949 57.4141,57.4139 C58.1951,56.6329 58.1951,55.3669 57.4141,54.5859" id="Fill-117" fill="#35495E"></path>
                <path d="M48,24 C48,37.255 37.255,48 24,48 C10.745,48 0,37.255 0,24 C0,10.745 10.745,0 24,0 C37.255,0 48,10.745 48,24" id="Fill-254" fill="#D0E8F9"></path>
                <path d="M24,48 C24.504,48 25.003,47.979 25.5,47.949 C12.944,47.174 3,36.75 3,24 C3,11.25 12.944,0.826 25.5,0.051 C25.003,0.021 24.504,0 24,0 C10.745,0 0,10.745 0,24 C0,37.255 10.745,48 24,48" id="Fill-255" fill="#DAEDFB"></path>
                <path d="M21.8364,32.5996 L25.1684,31.0186 C25.4324,30.8726 25.8334,30.5576 25.9604,30.2496 C26.0734,29.9766 25.9404,28.9996 25.6384,28.9996 L21.1504,28.9996 L20.2674,28.9996 C19.5384,28.9946 19.3374,28.0426 19.7444,27.4246 C20.8134,25.7986 22.5564,22.7606 22.6194,19.4516 C22.6194,19.4516 22.8404,17.7556 23.9684,16.2556 L23.5214,15.9996 C23.3414,14.9506 22.5434,12.9796 19.2524,12.9716 C14.4924,12.9826 14.6384,15.9996 14.6384,15.9996 L14.6384,18.2926 C14.3994,18.5106 13.6384,19.0676 13.6384,19.4166 L13.6384,21.9996 C13.6384,22.4176 16.6384,25.2826 16.6384,25.2826 L16.6384,26.7316 C16.6384,27.2606 16.4964,27.7466 16.0374,27.9996 L12.2784,29.9076 C11.2674,30.4646 10.6384,31.5356 10.6384,32.6986 L10.6384,33.9996 L19.1184,33.9996 L19.5214,33.9996 L20.2034,33.9996 C20.6224,33.4046 21.1744,32.9136 21.8364,32.5996" id="Fill-321" fill="#556080"></path>
                <path d="M28,36.0015 L37,36.0005 L36.934,34.8985 C36.536,33.8825 35.773,33.0605 34.802,32.5995 L31.47,31.0185 C31.206,30.8735 30.805,30.5575 30.678,30.2495 C30.565,29.9775 30.698,29.0005 31,29.0005 L36.371,29.0005 C37.101,28.9945 37.3,28.0435 36.894,27.4245 C35.825,25.7985 34.082,22.7605 34.019,19.4515 C34.019,19.4515 33.317,14.0445 28,14.0005 C22.683,14.0445 21.981,19.4515 21.981,19.4515 C21.918,22.7605 20.175,25.7985 19.106,27.4245 C18.7,28.0435 18.9,28.9945 19.629,29.0005 L25,29.0005 C25.302,29.0005 25.435,29.9775 25.322,30.2495 C25.195,30.5575 24.795,30.8735 24.53,31.0185 L21.198,32.5995 C20.227,33.0605 19.464,33.8825 19.067,34.8985 L19,36.0005 L28,36.0015 Z" id="Fill-405" fill="#8697CB"></path>
                <path d="M24,0 C23.496,0 22.997,0.021 22.5,0.051 C35.056,0.826 45,11.25 45,24 C45,36.75 35.056,47.174 22.5,47.949 C22.997,47.979 23.496,48 24,48 C37.255,48 48,37.255 48,24 C48,10.745 37.255,0 24,0" id="Fill-492" fill="#9CAEBB"></path>
            </g>
        </g>
    </g>
</svg>