<?xml version="1.0" encoding="UTF-8"?>
<svg width="58px" height="58px" viewBox="0 0 58 58" version="1.1" xmlns="http://www.w3.org/2000/svg" xmlns:xlink="http://www.w3.org/1999/xlink">
    <!-- Generator: Sketch 43.2 (39069) - http://www.bohemiancoding.com/sketch -->
    <title>40 -User Profile- (user, people, group, team)</title>
    <desc>Created with Sketch.</desc>
    <defs></defs>
    <g id="Page-1" stroke="none" stroke-width="1" fill="none" fill-rule="evenodd">
        <g id="Icons" transform="translate(-1201.000000, -710.000000)">
            <g id="40--User-Profile--(user,-people,-group,-team)" transform="translate(1201.000000, 710.000000)">
                <path d="M54.502,46 L3.498,46 C1.566,46 0,44.434 0,42.501 L0,3.499 C0,1.566 1.566,0 3.498,0 L54.502,0 C56.434,0 58,1.566 58,3.499 L58,42.501 C58,44.434 56.434,46 54.502,46" id="Fill-49" fill="#ECF0F1"></path>
                <path d="M54.502,46 L51.502,46 C53.434,46 55,44.434 55,42.501 L55,38 L58,38 L58,42.501 C58,44.434 56.434,46 54.502,46" id="Fill-51" fill="#B1B4B5"></path>
                <path d="M3.498,46 L6.498,46 C4.566,46 3,44.434 3,42.501 L3,38 L0,38 L0,42.501 C0,44.434 1.566,46 3.498,46" id="Fill-53" fill="#F4F7F7"></path>
                <path d="M39.7734,54 L18.2254,54 C18.0024,54 17.9154,53.692 18.1014,53.563 L19.9074,52.29 C21.8544,50.917 22.7744,48.399 22.2074,46 L35.7944,46 L35.7944,46.002 C35.2264,48.401 36.1474,50.919 38.0954,52.292 L39.8994,53.563 C40.0854,53.694 39.9974,54 39.7734,54" id="Fill-305" fill="#BDC3C7"></path>
                <path d="M58,38 L0,38 L0,3.499 C0,1.566 1.566,0 3.498,0 L54.502,0 C56.434,0 58,1.566 58,3.499 L58,38 Z" id="Fill-306" fill="#F0C419"></path>
                <path d="M54.502,0 L51.502,0 C53.434,0 55,1.566 55,3.499 L55,38 L58,38 L58,3.499 C58,1.566 56.434,0 54.502,0" id="Fill-307" fill="#B49313"></path>
                <path d="M3.498,0 L6.498,0 C4.566,0 3,1.566 3,3.499 L3,38 L0,38 L0,3.499 C0,1.566 1.566,0 3.498,0" id="Fill-308" fill="#F3D047"></path>
                <path d="M40,58 L18,58 C16.896,58 16,57.104 16,56 C16,54.896 16.896,54 18,54 L40,54 C41.104,54 42,54.896 42,56 C42,57.104 41.104,58 40,58" id="Fill-309" fill="#ECF0F1"></path>
                <path d="M25.9219,17.2544 C25.4819,13.4934 22.9949,11.9714 18.9999,11.9714 C18.8109,11.9714 18.6249,11.9794 18.4429,11.9934 C17.0849,12.1014 15.7119,11.8464 14.5819,11.0854 C14.1109,10.7684 13.7169,10.4324 13.4389,10.0794 C13.3129,9.9184 13.0589,10.0214 13.0819,10.2244 C13.1219,10.5744 13.1819,10.9824 13.2699,11.4284 C13.5999,13.0884 13.4019,12.8464 12.7609,14.4124 C12.4059,15.2784 12.1769,16.2394 12.0699,17.2584 C11.4379,17.5954 10.9999,18.2544 10.9999,19.0174 L10.9999,20.0174 C10.9999,20.9124 11.5999,21.6664 12.4149,21.9194 C12.9559,23.9424 14.0669,25.5614 15.9999,26.3934 L15.9999,27.5394 C15.9999,27.8324 15.8339,28.0994 15.5699,28.2284 L11.7099,30.1294 C11.4889,30.2504 11.2909,30.3984 11.1079,30.5604 C13.3559,32.0984 16.0709,33.0004 18.9999,33.0004 C21.9059,33.0004 24.6059,32.1134 26.8429,30.5974 C26.6449,30.4274 26.4269,30.2754 26.1869,30.1554 L22.4189,28.2314 C22.1619,28.1004 21.9999,27.8354 21.9999,27.5464 L21.9999,26.3934 C23.9339,25.5614 25.0439,23.9424 25.5849,21.9194 C26.4009,21.6664 26.9999,20.9124 26.9999,20.0174 L26.9999,19.0174 C26.9999,18.2514 26.5589,17.5904 25.9219,17.2544" id="Fill-310" fill="#663351"></path>
                <path d="M52,5 L39,5 C38.447,5 38,4.552 38,4 C38,3.448 38.447,3 39,3 L52,3 C52.553,3 53,3.448 53,4 C53,4.552 52.553,5 52,5" id="Fill-311" fill="#E64C3C"></path>
                <path d="M43,11 L39,11 C38.447,11 38,10.552 38,10 C38,9.448 38.447,9 39,9 L43,9 C43.553,9 44,9.448 44,10 C44,10.552 43.553,11 43,11" id="Fill-312" fill="#CC66A1"></path>
                <path d="M47,17 L39,17 C38.447,17 38,16.552 38,16 C38,15.448 38.447,15 39,15 L47,15 C47.553,15 48,15.448 48,16 C48,16.552 47.553,17 47,17" id="Fill-313" fill="#4482C3"></path>
                <path d="M43,23 L39,23 C38.447,23 38,22.552 38,22 C38,21.448 38.447,21 39,21 L43,21 C43.553,21 44,21.448 44,22 C44,22.552 43.553,23 43,23" id="Fill-314" fill="#26B99A"></path>
                <path d="M43,35 L39,35 C38.447,35 38,34.552 38,34 C38,33.448 38.447,33 39,33 L43,33 C43.553,33 44,33.448 44,34 C44,34.552 43.553,35 43,35" id="Fill-315" fill="#4482C3"></path>
                <path d="M52,35 L47,35 C46.447,35 46,34.552 46,34 C46,33.448 46.447,33 47,33 L52,33 C52.553,33 53,33.448 53,34 C53,34.552 52.553,35 52,35" id="Fill-316" fill="#CC66A1"></path>
                <path d="M47,29 L39,29 C38.447,29 38,28.552 38,28 C38,27.448 38.447,27 39,27 L47,27 C47.553,27 48,27.448 48,28 C48,28.552 47.553,29 47,29" id="Fill-317" fill="#894B9D"></path>
                <path d="M19,5 C11.268,5 5,11.268 5,19 C5,23.804 7.422,28.039 11.107,30.561 C11.291,30.398 11.489,30.25 11.71,30.13 L15.57,28.229 C15.834,28.099 16,27.832 16,27.539 L16,26.394 C14.066,25.561 12.956,23.942 12.415,21.919 C11.6,21.667 11,20.913 11,20.017 L11,19.017 C11,18.254 11.438,17.595 12.07,17.258 C12.177,16.24 12.406,15.279 12.761,14.413 C13.402,12.846 13.6,13.089 13.27,11.428 C13.182,10.982 13.122,10.575 13.082,10.225 C13.059,10.021 13.313,9.918 13.438,10.079 C13.717,10.432 14.111,10.769 14.582,11.085 C15.712,11.846 17.085,12.102 18.443,11.994 C18.625,11.979 18.811,11.972 19,11.972 C22.995,11.972 25.481,13.494 25.922,17.254 C26.559,17.59 27,18.251 27,19.017 L27,20.017 C27,20.913 26.4,21.667 25.585,21.919 C25.044,23.942 23.934,25.561 22,26.394 L22,27.547 C22,27.835 22.162,28.1 22.419,28.231 L26.187,30.156 C26.427,30.276 26.645,30.427 26.843,30.597 C30.559,28.08 33,23.826 33,19 C33,11.268 26.732,5 19,5" id="Fill-395" fill="#CC66A1"></path>
                <path d="M30,42 C30,42.552 29.553,43 29,43 C28.447,43 28,42.552 28,42 C28,41.448 28.447,41 29,41 C29.553,41 30,41.448 30,42" id="Fill-396" fill="#BDC3C7"></path>
            </g>
        </g>
    </g>
</svg>