<?xml version="1.0" encoding="UTF-8"?>
<svg width="58px" height="50px" viewBox="0 0 58 50" version="1.1" xmlns="http://www.w3.org/2000/svg" xmlns:xlink="http://www.w3.org/1999/xlink">
    <!-- Generator: Sketch 43.2 (39069) - http://www.bohemiancoding.com/sketch -->
    <title>57 -Employee Folder- (Flat)</title>
    <desc>Created with Sketch.</desc>
    <defs></defs>
    <g id="Page-1" stroke="none" stroke-width="1" fill="none" fill-rule="evenodd">
        <g id="Icons" transform="translate(-840.000000, -931.000000)">
            <g id="57--Employee-Folder--(Flat)" transform="translate(840.000000, 931.000000)">
                <g id="Page-1">
                    <path d="M3,50 L3,50 C1.343,50 0,48.657 0,47 L0,8 C0,6.343 1.343,5 3,5 L6,5 L6,47 C6,48.657 4.657,50 3,50" id="Fill-1" fill="#C2996E"></path>
                    <path d="M3,47 L3,8 C3,6.343 4.343,5 6,5 L3,5 C1.343,5 0,6.343 0,8 L0,47 C0,48.657 1.343,50 3,50 C3.549,50 4.058,49.842 4.5,49.584 C3.607,49.064 3,48.107 3,47" id="Fill-3" fill="#CEAD8B"></path>
                    <path d="M6,47 C6,48.305 5.162,49.403 4,49.816 L4,50 L55,50 C56.657,50 58,48.657 58,47 L58,11 L26,11 L16,0 L9,0 C7.343,0 6,1.343 6,3 L6,47 Z" id="Fill-5" fill="#FAC176"></path>
                    <path d="M55,11 L55,47 C55,48.657 53.657,50 52,50 L55,50 C56.657,50 58,48.657 58,47 L58,11 L55,11 Z" id="Fill-7" fill="#BC9159"></path>
                    <path d="M55,5 L20.545,5 L26,11 L58,11 L58,8 C58,6.343 56.656,5 55,5" id="Fill-9" fill="#C2996E"></path>
                    <path d="M55,5 L52,5 C53.656,5 55,6.343 55,8 L55,11 L58,11 L58,8 C58,6.343 56.656,5 55,5" id="Fill-11" fill="#927353"></path>
                    <path d="M27.4541,37 L22.5461,37 C19.5851,37 17.1731,39.322 17.0161,42.244 C19.2201,43.965 21.9861,45 25.0001,45 C28.0141,45 30.7801,43.965 32.9841,42.244 C32.8271,39.322 30.4151,37 27.4541,37" id="Fill-13" fill="#4482C3"></path>
                    <path d="M25,19 C17.82,19 12,24.82 12,32 C12,36.166 13.967,39.865 17.016,42.244 C17.173,39.322 19.585,37 22.546,37 L27.454,37 C30.415,37 32.827,39.322 32.984,42.244 C36.033,39.865 38,36.166 38,32 C38,24.82 32.18,19 25,19" id="Fill-15" fill="#FFFFFF"></path>
                    <path d="M29,28.5 C29,30.985 27.209,33 25,33 C22.791,33 21,30.985 21,28.5 C21,26.015 22.791,24 25,24 C27.209,24 29,26.015 29,28.5" id="Fill-17" fill="#4482C3"></path>
                    <path d="M53,19 L41,19 C40.447,19 40,18.553 40,18 C40,17.447 40.447,17 41,17 L53,17 C53.553,17 54,17.447 54,18 C54,18.553 53.553,19 53,19" id="Fill-19" fill="#FFFFFF"></path>
                    <path d="M53,23 L46,23 C45.447,23 45,22.553 45,22 C45,21.447 45.447,21 46,21 L53,21 C53.553,21 54,21.447 54,22 C54,22.553 53.553,23 53,23" id="Fill-21" fill="#FFFFFF"></path>
                </g>
            </g>
        </g>
    </g>
</svg>