<?xml version="1.0" encoding="UTF-8"?>
<svg width="59px" height="58px" viewBox="0 0 59 58" version="1.1" xmlns="http://www.w3.org/2000/svg" xmlns:xlink="http://www.w3.org/1999/xlink">
    <!-- Generator: Sketch 40.3 (33839) - http://www.bohemiancoding.com/sketch -->
    <title>32 -Boxes- (shipping, transport, delivery, flat)</title>
    <desc>Created with Sketch.</desc>
    <defs></defs>
    <g id="Page-1" stroke="none" stroke-width="1" fill="none" fill-rule="evenodd">
        <g id="Delivery-2---Flat" transform="translate(-241.000000, -764.000000)">
            <g id="32--Boxes--(shipping,-transport,-delivery,-flat)" transform="translate(241.000000, 764.000000)">
                <path d="M34.3535,18 L25.3535,18 L25.3535,27 L20.3535,23 L15.3535,27 L15.3535,18 L6.3535,18 C4.1445,18 2.3535,19.791 2.3535,22 L2.3535,44 C2.3535,46.209 4.1445,48 6.3535,48 L34.3535,48 C36.5625,48 38.3535,46.209 38.3535,44 L38.3535,22 C38.3535,19.791 36.5625,18 34.3535,18" id="Fill-83" fill="#60442B"></path>
                <path d="M52.3535,1 L39.3535,1 L39.3535,13 L33.3535,8 L27.3535,13 L27.3535,1 L14.3535,1 C12.1445,1 10.3535,2.791 10.3535,5 L10.3535,18 L15.3535,18 L15.3535,27 L20.3535,23 L25.3535,27 L25.3535,18 L34.3535,18 C36.5625,18 38.3535,19.791 38.3535,22 L38.3535,44 C38.3535,46.209 36.5625,48 34.3535,48 L52.3535,48 C54.5625,48 56.3535,46.209 56.3535,44 L56.3535,5 C56.3535,2.791 54.5625,1 52.3535,1" id="Fill-84" fill="#C69666"></path>
                <polygon id="Fill-378" fill="#896745" points="0.354 54 58.354 54 58.354 48 0.354 48"></polygon>
                <polygon id="Fill-379" fill="#60442B" points="2.354 58 10.354 58 10.354 54 2.354 54"></polygon>
                <polygon id="Fill-380" fill="#60442B" points="48.354 58 56.354 58 56.354 54 48.354 54"></polygon>
                <polygon id="Fill-381" fill="#60442B" points="25.354 58 33.354 58 33.354 54 25.354 54"></polygon>
                <polygon id="Fill-394" fill="#E8D5B2" points="39.3535 13 33.3535 8 27.3535 13 27.3535 0 39.3535 0"></polygon>
                <path d="M51.3535,45 L46.7825,45 C46.2295,45 45.7825,44.553 45.7825,44 C45.7825,43.447 46.2295,43 46.7825,43 L51.3535,43 C51.9055,43 52.3535,43.447 52.3535,44 C52.3535,44.553 51.9055,45 51.3535,45" id="Fill-395" fill="#896745"></path>
                <path d="M51.3535,41 L44.4965,41 C43.9445,41 43.4965,40.553 43.4965,40 C43.4965,39.447 43.9445,39 44.4965,39 L51.3535,39 C51.9055,39 52.3535,39.447 52.3535,40 C52.3535,40.553 51.9055,41 51.3535,41" id="Fill-396" fill="#896745"></path>
                <polygon id="Fill-397" fill="#E8D5B2" points="25.3535 27 20.3535 23 15.3535 27 15.3535 16 25.3535 16"></polygon>
                <path d="M34.3535,45 L31.3535,45 C30.8015,45 30.3535,44.553 30.3535,44 C30.3535,43.447 30.8015,43 31.3535,43 L34.3535,43 C34.9055,43 35.3535,43.447 35.3535,44 C35.3535,44.553 34.9055,45 34.3535,45" id="Fill-398" fill="#896745"></path>
                <path d="M34.3535,41 L29.3535,41 C28.8015,41 28.3535,40.553 28.3535,40 C28.3535,39.447 28.8015,39 29.3535,39 L34.3535,39 C34.9055,39 35.3535,39.447 35.3535,40 C35.3535,40.553 34.9055,41 34.3535,41" id="Fill-399" fill="#896745"></path>
            </g>
        </g>
    </g>
</svg>