<?xml version="1.0" encoding="UTF-8" standalone="no"?>
<svg width="40px" height="59px" viewBox="0 0 40 59" version="1.1" xmlns="http://www.w3.org/2000/svg" xmlns:xlink="http://www.w3.org/1999/xlink">
    <!-- Generator: Sketch 40.1 (33804) - http://www.bohemiancoding.com/sketch -->
    <title>33 -Check List- (document, paper, write, note, flat)</title>
    <desc>Created with Sketch.</desc>
    <defs></defs>
    <g id="Page-1" stroke="none" stroke-width="1" fill="none" fill-rule="evenodd">
        <g id="Icons" transform="translate(-367.000000, -713.000000)">
            <g id="33--Check-List--(document,-paper,-write,-note,-flat)" transform="translate(367.000000, 713.000000)">
                <path d="M25,4.014 L25,2 C25,0.895 24.104,0.014 23,0.014 L17,0.014 C15.896,0.014 15,0.895 15,2 L15,4.014 L11,4.014 C10.448,4.014 10,4.448 10,5 L10,12.014 C10,12.574 10.44,13.028 11,13.028 L28.986,13.014 C29.546,13.014 30,12.574 30,12.014 L30,5 C30,4.448 29.552,4.014 29,4.014 L25,4.014 Z" id="Fill-215" fill="#546080"></path>
                <path d="M30,7.014 L30,12.014 C30,12.566 29.553,13.014 29.001,13.014 L11.015,13.028 C10.454,13.028 10,12.574 10,12.014 L10,7.014 L4,7.014 C1.791,7.014 0,8.805 0,11.014 L0,54.014 C0,56.223 1.791,58.014 4,58.014 L36,58.014 C38.209,58.014 40,56.223 40,54.014 L40,11.014 C40,8.805 38.209,7.014 36,7.014 L30,7.014 Z" id="Fill-216" fill="#EFEADD"></path>
                <path d="M23,49.014 L7,49.014 C6.448,49.014 6,48.567 6,48.014 C6,47.461 6.448,47.014 7,47.014 L23,47.014 C23.552,47.014 24,47.461 24,48.014 C24,48.567 23.552,49.014 23,49.014" id="Fill-228" fill="#D4D0BA"></path>
                <path d="M23,40.014 L7,40.014 C6.448,40.014 6,39.567 6,39.014 C6,38.461 6.448,38.014 7,38.014 L23,38.014 C23.552,38.014 24,38.461 24,39.014 C24,39.567 23.552,40.014 23,40.014" id="Fill-229" fill="#D4D0BA"></path>
                <path d="M23,31.014 L7,31.014 C6.448,31.014 6,30.567 6,30.014 C6,29.461 6.448,29.014 7,29.014 L23,29.014 C23.552,29.014 24,29.461 24,30.014 C24,30.567 23.552,31.014 23,31.014" id="Fill-230" fill="#D4D0BA"></path>
                <path d="M23,22.014 L7,22.014 C6.448,22.014 6,21.567 6,21.014 C6,20.461 6.448,20.014 7,20.014 L23,20.014 C23.552,20.014 24,20.461 24,21.014 C24,21.567 23.552,22.014 23,22.014" id="Fill-231" fill="#D4D0BA"></path>
                <path d="M30,24.014 C29.744,24.014 29.488,23.916 29.293,23.721 L27.293,21.721 C26.902,21.33 26.902,20.698 27.293,20.307 C27.684,19.916 28.316,19.916 28.707,20.307 L30.707,22.307 C31.098,22.698 31.098,23.33 30.707,23.721 C30.512,23.916 30.256,24.014 30,24.014" id="Fill-232" fill="#26B999"></path>
                <path d="M29.9995,24.014 C29.7805,24.014 29.5595,23.943 29.3755,23.795 C28.9435,23.45 28.8745,22.821 29.2195,22.389 L33.2195,17.389 C33.5645,16.958 34.1945,16.888 34.6245,17.233 C35.0565,17.578 35.1255,18.207 34.7805,18.639 L30.7805,23.639 C30.5835,23.885 30.2925,24.014 29.9995,24.014" id="Fill-233" fill="#26B999"></path>
                <path d="M30,33.014 C29.744,33.014 29.488,32.916 29.293,32.721 L27.293,30.721 C26.902,30.33 26.902,29.698 27.293,29.307 C27.684,28.916 28.316,28.916 28.707,29.307 L30.707,31.307 C31.098,31.698 31.098,32.33 30.707,32.721 C30.512,32.916 30.256,33.014 30,33.014" id="Fill-234" fill="#26B999"></path>
                <path d="M29.9995,33.014 C29.7805,33.014 29.5595,32.943 29.3755,32.795 C28.9435,32.45 28.8745,31.821 29.2195,31.389 L33.2195,26.389 C33.5645,25.958 34.1945,25.888 34.6245,26.233 C35.0565,26.578 35.1255,27.207 34.7805,27.639 L30.7805,32.639 C30.5835,32.885 30.2925,33.014 29.9995,33.014" id="Fill-235" fill="#26B999"></path>
                <path d="M30,42.014 C29.744,42.014 29.488,41.916 29.293,41.721 L27.293,39.721 C26.902,39.33 26.902,38.698 27.293,38.307 C27.684,37.916 28.316,37.916 28.707,38.307 L30.707,40.307 C31.098,40.698 31.098,41.33 30.707,41.721 C30.512,41.916 30.256,42.014 30,42.014" id="Fill-236" fill="#26B999"></path>
                <path d="M29.9995,42.014 C29.7805,42.014 29.5595,41.943 29.3755,41.795 C28.9435,41.45 28.8745,40.821 29.2195,40.389 L33.2195,35.389 C33.5645,34.959 34.1945,34.888 34.6245,35.233 C35.0565,35.578 35.1255,36.207 34.7805,36.639 L30.7805,41.639 C30.5835,41.885 30.2925,42.014 29.9995,42.014" id="Fill-237" fill="#26B999"></path>
                <path d="M30,51.014 C29.744,51.014 29.488,50.916 29.293,50.721 L27.293,48.721 C26.902,48.33 26.902,47.698 27.293,47.307 C27.684,46.916 28.316,46.916 28.707,47.307 L30.707,49.307 C31.098,49.698 31.098,50.33 30.707,50.721 C30.512,50.916 30.256,51.014 30,51.014" id="Fill-238" fill="#26B999"></path>
                <path d="M29.9995,51.014 C29.7805,51.014 29.5595,50.943 29.3755,50.795 C28.9435,50.45 28.8745,49.821 29.2195,49.389 L33.2195,44.389 C33.5645,43.958 34.1945,43.889 34.6245,44.233 C35.0565,44.578 35.1255,45.207 34.7805,45.639 L30.7805,50.639 C30.5835,50.885 30.2925,51.014 29.9995,51.014" id="Fill-239" fill="#26B999"></path>
            </g>
        </g>
    </g>
</svg>