<?xml version="1.0" encoding="UTF-8" standalone="no"?>
<svg width="31px" height="60px" viewBox="0 0 31 60" version="1.1" xmlns="http://www.w3.org/2000/svg" xmlns:xlink="http://www.w3.org/1999/xlink">
    <!-- Generator: Sketch 40.1 (33804) - http://www.bohemiancoding.com/sketch -->
    <title>77 -Hotel Menu- (hotel, service, travel, yellow )</title>
    <desc>Created with Sketch.</desc>
    <defs></defs>
    <g id="Page-1" stroke="none" stroke-width="1" fill="none" fill-rule="evenodd">
        <g id="Hotel-Services---Yellow" transform="translate(-855.000000, -1243.000000)">
            <g id="77--Hotel-Menu--(hotel,-service,-travel,-yellow-)" transform="translate(856.000000, 1244.000000)">
                <polygon id="Fill-170" fill="#DB4D6C" points="22.0079 10 0.0079 10 22.0079 0"></polygon>
                <polygon id="Fill-182" fill="#FD9808" points="10.008 58 28.008 58 28.008 10 10.008 10"></polygon>
                <polygon id="Fill-183" fill="#FFFFFF" points="0.008 58 18.008 58 18.008 10 0.008 10"></polygon>
                <polygon id="Fill-184" fill="#FFDD09" points="3.008 58 25.008 58 25.008 10 3.008 10"></polygon>
                <polygon id="Stroke-1533" stroke="#000000" stroke-width="2" stroke-linecap="round" stroke-linejoin="round" points="0.008 58 28.008 58 28.008 10 0.008 10"></polygon>
                <polygon id="Stroke-1534" stroke="#000000" stroke-width="2" stroke-linecap="round" stroke-linejoin="round" points="22.0079 10 0.0079 10 22.0079 0"></polygon>
                <path d="M6.0079,52 L22.0079,52" id="Stroke-1535" stroke="#000000" stroke-width="2" stroke-linecap="round" stroke-linejoin="round"></path>
                <path d="M10.0079,48 L18.0079,48" id="Stroke-1536" stroke="#000000" stroke-width="2" stroke-linecap="round" stroke-linejoin="round"></path>
                <path d="M11.0079,26 L21.0079,36" id="Stroke-1543" stroke="#000000" stroke-width="2" stroke-linecap="round" stroke-linejoin="round"></path>
                <path d="M13.0079,23.0555 L13.0079,28.0005 L5.0079,20.0005 L10.9679,20.7455 C12.1339,20.8905 13.0079,21.8815 13.0079,23.0555 L13.0079,23.0555 Z" id="Stroke-1544" stroke="#000000" stroke-width="2" stroke-linecap="round" stroke-linejoin="round"></path>
                <path d="M19.0079,24 L7.0079,36" id="Stroke-1545" stroke="#000000" stroke-width="2" stroke-linecap="round" stroke-linejoin="round"></path>
                <path d="M24.0256,22.0178 L21.9636,24.1218 C21.1916,24.9098 19.9236,24.9158 19.1436,24.1358 L18.8166,23.8088 C18.0576,23.0498 18.0396,21.8258 18.7746,21.0448 L21.0076,18.9998" id="Stroke-1546" stroke="#000000" stroke-width="2" stroke-linecap="round" stroke-linejoin="round"></path>
            </g>
        </g>
    </g>
</svg>