<svg viewBox="0 0 77 47" xmlns="http://www.w3.org/2000/svg"><title>Group 34</title><g fill="#008000" fill-rule="evenodd" transform="translate(-10, 2) rotate(16.5 50 50)" ><path d="M74.881 23.97a.854.854 0 0 1-.572 1.056L9.238 44.244a.846.846 0 0 1-1.05-.577L2.07 22.624a.855.855 0 0 1 .573-1.056L67.715 2.35a.844.844 0 0 1 1.047.577l6.119 21.042zM67.141.38L2.072 19.6a2.904 2.904 0 0 0-1.954 3.6l6.118 21.042a2.877 2.877 0 0 0 3.573 1.97l65.072-19.22c1.525-.45 2.4-2.063 1.953-3.6L70.715 2.35A2.877 2.877 0 0 0 67.142.38zm6.309 23.486L9.338 42.801 3.5 22.727 67.612 3.79l5.838 20.076zm-5.6-21.054L2.778 22.033a.368.368 0 0 0-.248.455L8.65 43.53c.056.194.26.306.452.248L74.173 24.56a.369.369 0 0 0 .248-.456L68.3 3.063a.364.364 0 0 0-.451-.25z"/><path d="M20.814 27.397l.316-.094c1.164-.344 1.595-1.034 1.294-2.073-.135-.465-.371-.766-.706-.904-.335-.136-.703-.145-1.103-.028l-.645.191.844 2.908zm-4.291 5.78l1.2-.355-2.053-7.063-1.162.343-.796-2.735 5.009-1.48.184-.055a9.61 9.61 0 0 0 .164-.048l.19-.056c.334-.094.668-.192 1-.295a9.63 9.63 0 0 1 .99-.255c.329-.065.65-.125.965-.175.312-.052.62-.07.922-.059.301.013.588.048.862.108.273.06.538.164.793.313.256.149.49.334.704.554.215.22.413.499.598.838.186.338.344.725.477 1.164.232.761.311 1.455.234 2.081a3.21 3.21 0 0 1-.661 1.632 4.89 4.89 0 0 1-1.393 1.185c-.564.329-1.24.61-2.023.841a9.53 9.53 0 0 1-1.178.264l.473 1.628 1.125-.333.808 2.784-6.623 1.956-.81-2.783zm17.507-8.656l-2.046-3.673.283 4.194 1.762-.52zm5.741 1.048c.09.149.16.26.211.334a.688.688 0 0 0 .19.184.27.27 0 0 0 .228.037l.662-.195.81 2.783-6.354 1.876-.817-2.781.923-.273c-.246-.846-.542-1.22-.885-1.119l-2.114.625a.189.189 0 0 0-.132.127.398.398 0 0 0-.012.185c.012.058.03.143.057.253.042.145.118.302.229.472.11.17.219.237.326.205l.646-.191.81 2.784-5.216 1.54-.808-2.784c.226-.066.419-.146.58-.239.374-.216.585-.545.641-.988.021-.141.021-.503.003-1.086l-.21-5.656-1.63.483-.796-2.737 7.646-2.258 5.012 8.419zm7.179-9.048l-1.132.333 2.055 7.063 1.085-.32.808 2.783-6.63 1.958-.81-2.783 1.13-.334-2.052-7.062-1.101.325-.796-2.736 6.646-1.962zm9.732 4.794c.375-.11.682-.28.923-.512a2 2 0 0 0 .516-.766c.105-.28.16-.6.175-.954a5.064 5.064 0 0 0-.057-1.015 8.209 8.209 0 0 0-.229-1 10.4 10.4 0 0 0-.33-.968 5.603 5.603 0 0 0-.462-.877 2.848 2.848 0 0 0-.62-.714 1.88 1.88 0 0 0-.823-.362 2.195 2.195 0 0 0-1.056.071l-.363.107 2.056 7.07.27-.08zm-5.732 1.692l1.255-.37-2.057-7.07-1.3.384-.793-2.727 6.384-1.886c2.114-.624 3.85-.56 5.21.19 1.36.752 2.337 2.151 2.932 4.198.246.843.337 1.683.274 2.52a6.532 6.532 0 0 1-.629 2.37c-.359.743-.904 1.412-1.64 2.004-.736.595-1.621 1.043-2.656 1.35l-6.17 1.821-.81-2.784z"/></g></svg>