<?xml version="1.0" standalone="no"?>
<!DOCTYPE svg PUBLIC "-//W3C//DTD SVG 20010904//EN"
 "http://www.w3.org/TR/2001/REC-SVG-20010904/DTD/svg10.dtd">
<svg version="1.0" xmlns="http://www.w3.org/2000/svg"
 width="1311.000000pt" height="786.000000pt" viewBox="0 0 1311.000000 786.000000"
 preserveAspectRatio="xMidYMid meet">
<metadata>
Created by potrace 1.15, written by Peter Selinger 2001-2017
</metadata>
<g transform="translate(0.000000,786.000000) scale(0.100000,-0.100000)"
fill="#d40000" stroke="none">
<path d="M1047 7103 c-29 -6 -54 -11 -57 -10 -3 1 -15 -4 -27 -11 -13 -7 -23
-10 -23 -7 0 3 -10 0 -22 -7 -13 -7 -25 -13 -28 -13 -3 -1 -31 -16 -62 -34
-68 -39 -192 -168 -229 -237 -33 -63 -66 -165 -73 -229 -3 -27 -8 -1231 -11
-2675 -5 -2340 -4 -2633 10 -2698 14 -69 51 -171 66 -182 3 -3 13 -19 22 -36
32 -63 164 -181 240 -215 15 -7 27 -16 27 -21 0 -5 4 -6 10 -3 5 3 10 1 10 -5
0 -6 4 -9 10 -5 5 3 26 -1 47 -10 20 -9 53 -18 72 -21 25 -5 1721 -16 1961
-14 8 0 83 0 165 0 83 0 159 0 170 1 11 0 34 0 50 0 17 -1 39 -1 50 0 25 1 81
1 170 0 134 -1 340 -1 360 0 11 0 34 0 50 0 17 0 91 -1 165 0 74 0 164 0 200
-1 89 -1 83 -1 195 -1 95 0 389 1 410 2 9 0 122 0 165 0 525 -7 6911 -5 6923
1 10 5 27 11 38 14 10 2 29 7 42 10 12 3 27 6 33 7 6 2 23 11 37 20 15 10 27
15 27 11 0 -3 15 5 34 19 18 15 36 24 38 21 3 -2 41 33 85 79 85 89 133 172
168 297 18 62 19 169 19 2750 1 2834 2 2738 -41 2806 -7 11 -10 23 -7 27 3 3
1 12 -5 19 -6 7 -26 36 -44 63 -30 48 -131 155 -146 155 -3 0 -21 13 -38 28
-29 27 -131 76 -163 78 -8 1 -26 5 -40 9 -14 5 -38 10 -55 12 -16 2 -1153 6
-2525 8 -1372 3 -2499 5 -2505 5 -23 1 -622 0 -640 -1 -42 -1 -102 -1 -150 0
-57 1 -359 2 -580 1 -82 -1 -179 -1 -215 0 -36 0 -74 0 -85 0 -11 -1 -33 -1
-50 -1 -16 0 -165 0 -330 0 -165 0 -304 0 -310 0 -5 0 -808 2 -1783 3 -1322 2
-1787 0 -1825 -9z m2023 -303 c13 1 469 0 495 0 37 -1 324 0 340 1 20 0 63 0
88 -2 6 0 21 0 32 1 11 1 36 1 55 1 19 -1 42 -1 50 0 13 0 178 0 325 -1 28 0
57 0 65 -1 8 -1 31 -1 50 0 19 1 42 1 50 0 8 0 24 0 35 1 11 1 36 1 55 1 19
-1 44 -1 55 -1 38 1 320 1 330 1 6 -1 1509 -3 3340 -5 1832 -3 3344 -7 3360
-9 17 -3 44 -8 61 -10 35 -6 135 -49 160 -69 52 -42 132 -128 145 -155 7 -18
17 -33 20 -33 3 0 12 -19 19 -42 7 -24 17 -56 24 -73 15 -41 10 -4955 -5
-5034 -11 -55 -32 -108 -69 -170 -23 -41 -120 -142 -130 -136 -4 3 -15 -4 -25
-15 -14 -15 -70 -42 -95 -45 -3 0 -11 -4 -18 -8 -7 -5 -25 -11 -40 -15 -15 -3
-1541 -5 -3392 -4 -1851 1 -3374 2 -3385 1 -11 0 -33 0 -50 0 -16 1 -52 0 -80
0 -53 -2 -343 0 -360 2 -5 1 -26 1 -45 0 -19 -1 -44 -1 -55 -1 -43 2 -221 2
-240 0 -11 -1 -33 -1 -50 -1 -16 1 -52 0 -80 0 -50 -1 -127 0 -155 2 -8 1 -31
1 -50 0 -32 -1 -332 -3 -355 -2 -5 0 -41 1 -80 1 -38 0 -86 0 -105 1 -19 0
-494 2 -1055 3 -561 2 -1034 6 -1052 10 -36 6 -135 49 -159 68 -9 7 -43 37
-75 67 -72 66 -126 169 -144 276 -7 40 -7 4598 0 4858 5 187 33 270 126 372
49 53 145 125 173 129 6 1 17 5 23 9 16 10 48 18 91 22 18 1 35 4 37 7 2 2
392 2 867 1 475 -2 870 -3 878 -3z"/>
<path d="M7468 5995 c-2 -2 -19 -5 -38 -8 -19 -4 -42 -8 -50 -10 -8 -2 -28 -7
-45 -12 -116 -30 -233 -121 -287 -220 -54 -101 -70 -291 -31 -367 7 -16 11
-28 7 -28 -3 0 5 -15 20 -34 14 -19 26 -37 26 -40 0 -9 90 -96 100 -96 5 0 14
-8 19 -17 6 -10 11 -13 11 -8 0 6 3 6 8 -1 10 -15 252 -115 263 -108 5 3 9 0
9 -6 0 -6 5 -8 10 -5 6 3 10 1 10 -5 0 -6 5 -8 10 -5 6 3 10 2 10 -4 0 -6 7
-8 15 -5 8 4 15 1 15 -6 0 -6 5 -8 10 -5 6 3 10 2 10 -4 0 -5 15 -14 34 -21
49 -16 80 -57 84 -110 3 -38 -1 -49 -22 -69 -14 -14 -26 -21 -26 -17 0 5 -6 3
-14 -3 -21 -17 -61 -24 -146 -23 -85 1 -147 7 -205 20 -44 10 -163 58 -182 74
-9 7 -16 1 -27 -24 -27 -60 -96 -259 -96 -276 0 -10 10 -24 23 -31 44 -29 117
-61 138 -61 11 0 29 -5 39 -10 11 -6 34 -13 52 -15 18 -3 47 -7 63 -10 120
-20 320 -20 395 -1 14 3 39 8 55 11 45 9 48 10 73 23 12 7 22 10 22 7 0 -4 13
3 29 14 15 11 31 18 34 15 3 -3 32 21 64 53 96 95 133 184 133 326 0 86 -12
165 -31 199 -5 10 -9 25 -9 33 0 8 -4 15 -10 15 -5 0 -10 5 -10 12 0 6 -28 37
-62 70 -82 76 -98 89 -98 82 0 -4 -6 -2 -13 4 -15 12 -272 122 -302 129 -11 2
-26 5 -33 7 -8 1 -18 9 -23 17 -5 8 -9 11 -9 6 0 -11 -51 24 -77 53 -25 28
-30 77 -10 102 25 33 78 45 187 42 131 -3 137 -4 240 -47 l85 -35 43 117 c24
64 46 126 49 139 3 12 9 25 14 28 5 3 9 14 9 25 0 11 -4 18 -9 15 -5 -3 -12 1
-15 9 -3 8 -9 14 -13 14 -4 -1 -30 8 -56 20 -27 13 -62 24 -78 26 -15 2 -38 9
-50 15 -11 7 -23 9 -26 6 -3 -2 -17 0 -32 6 -23 9 -275 21 -283 13z"/>
<path d="M3517 5983 c-2 -1 -43 -5 -92 -8 -50 -3 -103 -8 -120 -11 -80 -12
-101 -15 -112 -16 -16 -2 -15 27 -18 -839 l-3 -666 71 -1 c40 -1 81 -2 92 -1
23 1 69 0 88 -2 39 -3 129 5 133 13 3 5 5 115 5 244 l-1 234 53 -1 c80 -1 248
14 297 26 14 4 32 8 40 9 9 1 20 4 25 8 8 4 46 16 75 23 3 0 15 6 28 13 12 7
22 10 22 6 0 -3 20 10 45 30 25 21 45 34 45 30 0 -4 11 3 25 16 14 13 25 27
25 32 0 4 15 29 33 55 84 121 100 356 36 510 -25 59 -75 123 -127 162 -66 50
-194 101 -292 116 -14 2 -41 7 -60 10 -33 6 -308 13 -313 8z m278 -356 c75
-10 128 -54 146 -121 12 -45 5 -110 -16 -143 -15 -23 -84 -76 -71 -54 6 9 0 8
-16 -3 -23 -15 -109 -26 -223 -30 l-50 -1 -4 174 c-2 120 0 176 8 180 11 7
168 5 226 -2z"/>
<path d="M5485 5962 c-2 -2 -15 -27 -29 -55 -116 -241 -283 -642 -396 -952
-28 -77 -55 -151 -61 -165 -6 -14 -21 -56 -34 -95 -41 -120 -55 -159 -72 -198
-21 -48 -12 -56 57 -56 30 -1 71 -1 90 -1 19 0 51 0 70 1 19 1 42 1 50 0 30
-2 115 0 118 3 1 2 26 70 54 152 28 82 54 151 59 154 4 3 124 6 266 5 l257 0
26 -77 c15 -43 30 -81 33 -85 4 -3 7 -15 7 -25 0 -10 4 -26 9 -36 6 -9 12 -29
15 -43 9 -41 43 -52 160 -50 120 2 119 2 201 0 57 -2 60 -1 58 22 -2 33 -16
81 -48 164 -15 39 -27 78 -27 88 1 9 -3 17 -8 17 -5 0 -12 16 -16 35 -3 19
-10 38 -15 41 -5 3 -9 14 -9 25 0 10 -4 27 -9 37 -5 9 -19 44 -31 77 -21 55
-79 206 -102 265 -6 14 -14 33 -19 42 -5 10 -9 25 -9 33 0 8 -4 23 -9 33 -18
34 -41 90 -41 101 0 6 -4 11 -10 11 -5 0 -10 11 -10 25 0 14 -4 25 -10 25 -5
0 -10 11 -10 25 0 14 -4 25 -10 25 -5 0 -10 9 -10 21 0 11 -7 27 -15 35 -8 8
-12 21 -9 29 4 8 1 15 -4 15 -6 0 -14 10 -18 23 -10 35 -101 236 -129 287
l-14 25 -171 0 c-94 0 -173 -1 -175 -3z m173 -459 c-1 -5 8 -30 20 -56 12 -27
22 -57 22 -68 0 -10 5 -19 10 -19 6 0 10 -8 10 -19 0 -17 31 -106 51 -143 10
-19 39 -99 39 -108 0 -3 -71 -5 -157 -5 -183 0 -172 -11 -122 121 17 43 43
113 59 154 39 104 59 150 65 150 3 0 4 -3 3 -7z"/>
<path d="M8666 5930 c-3 -19 -6 -94 -6 -167 0 -116 2 -133 18 -141 9 -4 109
-8 222 -7 l206 1 -3 -582 c-3 -461 -1 -584 9 -590 19 -12 370 -11 374 1 2 5 5
271 6 590 l3 580 217 0 217 0 7 72 c8 86 -4 265 -17 257 -5 -3 -9 1 -9 8 0 11
-116 13 -619 13 l-619 0 -6 -35z"/>
<path d="M4315 3352 c-2 -2 -38 -5 -81 -8 -100 -6 -161 -12 -199 -19 -16 -3
-39 -7 -50 -8 -20 -2 -20 -10 -23 -743 l-2 -742 32 -6 c100 -18 142 -23 293
-31 61 -3 115 -6 120 -6 31 -1 195 11 223 16 17 3 44 7 60 10 15 2 37 7 50 10
12 3 30 7 40 9 9 2 38 13 65 25 26 11 47 18 47 15 0 -3 14 4 30 16 17 12 30
18 30 15 0 -4 22 12 49 34 27 23 53 41 59 41 11 0 112 113 112 125 0 4 8 19
19 33 24 35 70 143 87 207 8 28 17 109 20 182 8 144 -4 248 -38 343 -10 30
-20 60 -22 67 -1 7 -6 16 -10 20 -4 4 -14 23 -21 40 -17 41 -24 49 -112 136
-84 84 -103 101 -103 90 0 -4 -4 -3 -8 3 -10 15 -184 88 -206 86 -11 0 -28 4
-38 9 -19 10 -52 16 -153 25 -63 6 -266 10 -270 6z m269 -356 c72 -9 165 -54
209 -101 69 -72 94 -141 103 -280 10 -163 -29 -285 -121 -375 -25 -24 -45 -41
-45 -37 0 4 -12 0 -27 -10 -14 -9 -31 -18 -37 -20 -14 -2 -49 -11 -78 -19 -13
-3 -71 -7 -130 -9 l-108 -4 0 433 0 432 93 -2 c50 -1 114 -5 141 -8z"/>
<path d="M6008 3329 c-12 -8 -18 -914 -7 -1024 11 -96 25 -155 50 -212 10 -24
19 -47 19 -53 0 -5 5 -10 10 -10 6 0 14 -8 17 -17 8 -23 107 -123 121 -123 6
0 15 -6 19 -14 10 -17 121 -65 178 -78 88 -19 210 -25 305 -15 59 7 65 8 125
25 22 6 44 11 48 11 4 0 19 7 33 15 13 9 24 14 24 10 0 -3 15 5 34 19 18 15
36 24 38 22 12 -12 128 126 156 185 68 147 65 121 70 714 2 343 0 541 -6 545
-8 5 -342 6 -374 2 -4 -1 -8 -223 -8 -493 -1 -474 -3 -527 -30 -593 -25 -65
-94 -106 -185 -111 -87 -5 -142 13 -192 64 -24 24 -42 46 -41 50 1 4 -5 21
-12 37 -11 24 -14 138 -14 540 l-1 510 -183 0 c-101 0 -188 -3 -194 -6z"/>
<path d="M8014 3331 c-2 -2 -4 -339 -4 -748 0 -696 1 -745 17 -761 17 -16 57
-17 543 -17 l524 0 7 25 c11 38 10 265 -1 294 -9 24 -17 27 -72 25 -13 0 -36
0 -53 0 -16 0 -68 0 -115 0 -47 0 -91 0 -97 0 -7 1 -19 1 -25 1 -23 1 -193 0
-228 -1 -37 -1 -40 -1 -80 3 l-25 3 -3 134 c-1 78 1 137 7 140 5 4 136 6 290
5 l280 -1 7 29 c8 41 -6 302 -18 309 -5 3 -27 3 -48 -1 -21 -4 -43 -4 -49 0
-6 3 -36 3 -66 0 -30 -3 -60 -3 -67 1 -6 4 -21 4 -33 -1 -12 -5 -27 -5 -34 -1
-7 5 -27 6 -44 4 -18 -3 -39 -4 -47 -4 -8 1 -52 2 -97 2 l-83 2 0 107 0 108
318 -1 c175 0 323 3 330 7 9 5 12 54 12 172 0 149 -2 164 -17 165 -65 3 -1025
3 -1029 0z"/>
</g>
</svg>
