<?xml version="1.0" encoding="UTF-8" standalone="no"?>
<svg width="59px" height="57px" viewBox="0 0 59 57" version="1.1" xmlns="http://www.w3.org/2000/svg" xmlns:xlink="http://www.w3.org/1999/xlink">
    <!-- Generator: Sketch 40.1 (33804) - http://www.bohemiancoding.com/sketch -->
    <title>351 - Profile Settings (interaction, communication, interface, flat)</title>
    <desc>Created with Sketch.</desc>
    <defs></defs>
    <g id="Page-1" stroke="none" stroke-width="1" fill="none" fill-rule="evenodd">
        <g id="Icons" transform="translate(-1201.000000, -2818.000000)">
            <g id="Profile-Settings" transform="translate(1201.000000, 2818.000000)">
                <path d="M18.613,41.552 L10.705,45.866 C10.242,46.119 9.824,46.429 9.436,46.769 C14.047,50.655 19.999,53 26.5,53 C32.954,53 38.868,50.691 43.464,46.856 C43.04,46.498 42.58,46.176 42.07,45.922 L33.604,41.688 C32.51,41.141 31.819,40.023 31.819,38.8 L31.819,35.477 C32.056,35.207 32.329,34.858 32.619,34.448 C33.773,32.818 34.646,31.025 35.251,29.144 C36.337,28.809 37.137,27.806 37.137,26.614 L37.137,23.068 C37.137,22.288 36.79,21.591 36.25,21.103 L36.25,15.977 C36.25,15.977 37.303,8 26.5,8 C15.698,8 16.75,15.977 16.75,15.977 L16.75,21.103 C16.211,21.591 15.864,22.288 15.864,23.068 L15.864,26.614 C15.864,27.548 16.355,28.37 17.089,28.845 C17.975,32.702 20.296,35.477 20.296,35.477 L20.296,38.717 C20.296,39.899 19.65,40.987 18.613,41.552" id="Fill-633" fill="#EDF0F1" fill-rule="evenodd"></path>
                <path d="M26.953,0.004 C12.32,-0.246 0.254,11.414 0.004,26.047 C-0.138,34.344 3.561,41.801 9.448,46.76 C9.833,46.424 10.246,46.116 10.705,45.866 L18.613,41.552 C19.65,40.987 20.296,39.899 20.296,38.717 L20.296,35.477 C20.296,35.477 17.975,32.702 17.089,28.845 C16.355,28.37 15.864,27.548 15.864,26.614 L15.864,23.068 C15.864,22.288 16.211,21.591 16.75,21.103 L16.75,15.977 C16.75,15.977 15.698,8 26.5,8 C37.303,8 36.25,15.977 36.25,15.977 L36.25,21.103 C36.79,21.591 37.137,22.288 37.137,23.068 L37.137,26.614 C37.137,27.806 36.337,28.809 35.251,29.144 C34.646,31.025 33.773,32.818 32.619,34.448 C32.329,34.858 32.056,35.207 31.819,35.477 L31.819,38.8 C31.819,40.023 32.51,41.141 33.604,41.688 L42.07,45.922 C42.578,46.175 43.037,46.496 43.46,46.853 C49.17,42.091 52.859,34.971 52.996,26.953 C53.247,12.32 41.587,0.254 26.953,0.004" id="Fill-634" fill="#556080" fill-rule="evenodd"></path>
                <path d="M59,43.846 L57.556,43.569 C55.413,43.157 54.431,40.653 55.721,38.893 L56.627,37.657 L54.669,35.699 L53.452,36.524 C51.646,37.748 49.18,36.672 48.849,34.515 L48.615,33 L45.846,33 L45.488,34.865 C45.084,36.96 42.67,37.961 40.903,36.764 L39.331,35.699 L37.373,37.657 L38.279,38.893 C39.569,40.653 38.587,43.157 36.444,43.569 L35,43.846 L35,46.616 L36.515,46.849 C38.672,47.181 39.747,49.646 38.523,51.452 L37.699,52.67 L39.657,54.628 L40.893,53.721 C42.653,52.431 45.156,53.413 45.569,55.556 L45.846,57 L48.615,57 L48.779,55.935 C49.119,53.73 51.675,52.671 53.474,53.99 L54.343,54.628 L56.301,52.67 L55.477,51.452 C54.253,49.646 55.328,47.181 57.485,46.849 L59,46.616 L59,43.846" id="Fill-2297" fill="#BDC3C7" fill-rule="evenodd"></path>
                <path d="M51,45 C51,47.209 49.209,49 47,49 C44.791,49 43,47.209 43,45 C43,42.791 44.791,41 47,41 C49.209,41 51,42.791 51,45 L51,45 Z" id="Fill-2298" fill="#FFFFFF" fill-rule="evenodd"></path>
                <path d="M51,45 C51,47.209 49.209,49 47,49 C44.791,49 43,47.209 43,45 C43,42.791 44.791,41 47,41 C49.209,41 51,42.791 51,45 L51,45 Z" id="Stroke-2299" stroke="#EDF0F1" stroke-width="2"></path>
            </g>
        </g>
    </g>
</svg>