<?xml version="1.0" encoding="UTF-8"?>
<svg width="50px" height="60px" viewBox="0 0 50 60" version="1.1" xmlns="http://www.w3.org/2000/svg" xmlns:xlink="http://www.w3.org/1999/xlink">
    <!-- Generator: Sketch 43.2 (39069) - http://www.bohemiancoding.com/sketch -->
    <title>44 -Cooking Book- (kitchen, food cooking)</title>
    <desc>Created with Sketch.</desc>
    <defs></defs>
    <g id="Page-1" stroke="none" stroke-width="1" fill="none" fill-rule="evenodd">
        <g id="Icons" transform="translate(-484.000000, -807.000000)">
            <g id="44--Cooking-Book--(kitchen,-food-cooking)" transform="translate(485.000000, 808.000000)">
                <path d="M0,41 L0,53 C0,50.239 2.238,48 5,48 L48,48 L48,3.297 C48,1.476 46.524,0 44.703,0 L2.902,0 C1.299,0 0,1.299 0,2.902 L0,13 L0,41 Z" id="Fill-537" fill="#8697CB"></path>
                <path d="M23.1143,31 C22.9573,31 22.7983,30.963 22.6493,30.885 C22.1603,30.627 21.9733,30.022 22.2303,29.534 L34.5643,6.415 C34.8213,5.926 35.4263,5.739 35.9153,5.996 C36.4033,6.253 36.5913,6.858 36.3333,7.347 L24.0003,30.466 C23.8213,30.806 23.4733,31 23.1143,31" id="Fill-538" fill="#ECF0F1"></path>
                <path d="M23.3975,28.625 L22.2135,26.74 C21.6885,27.011 21.2325,27.427 20.9375,27.987 L15.3435,38.604 C14.5745,40.063 15.1395,41.887 16.5995,42.656 C18.0595,43.425 19.8825,42.86 20.6525,41.4 L24.9315,33.279 L23.6405,31.045 C23.2005,30.283 23.1455,29.406 23.3975,28.625" id="Fill-539" fill="#805333"></path>
                <path d="M20.3286,35.5786 L20.3286,35.5786 C19.8426,35.3226 19.6536,34.7146 19.9106,34.2276 C20.1666,33.7416 20.7746,33.5526 21.2616,33.8086 C21.7476,34.0656 21.9356,34.6736 21.6796,35.1596 C21.4236,35.6466 20.8156,35.8346 20.3286,35.5786" id="Fill-618" fill="#ECF0F1"></path>
                <path d="M30.5688,21.1143 C29.7688,21.1143 28.9778,20.9203 28.2528,20.5383 C25.8148,19.2533 24.8758,16.2233 26.1598,13.7843 L31.0258,4.5503 C31.2828,4.0613 31.8868,3.8753 32.3768,4.1313 C32.8648,4.3883 33.0518,4.9933 32.7948,5.4823 L27.9298,14.7163 C27.1588,16.1793 27.7218,17.9983 29.1858,18.7693 C29.8908,19.1413 30.7038,19.2143 31.4698,18.9763 C32.2388,18.7383 32.8658,18.2183 33.2378,17.5133 L38.1028,8.2793 C38.3608,7.7913 38.9648,7.6033 39.4538,7.8613 C39.9428,8.1183 40.1298,8.7233 39.8728,9.2123 L35.0068,18.4463 C34.3868,19.6233 33.3408,20.4903 32.0618,20.8863 C31.5708,21.0383 31.0678,21.1143 30.5688,21.1143" id="Fill-619" fill="#ECF0F1"></path>
                <path d="M33.9521,42.6001 L33.9521,42.6001 C32.5231,43.4251 30.6791,42.9321 29.8531,41.5031 L23.6401,31.0451 C22.8151,29.6161 23.3091,27.7721 24.7381,26.9461 C26.1661,26.1211 28.0111,26.6151 28.8361,28.0431 L35.0491,38.5011 C35.8741,39.9301 35.3811,41.7741 33.9521,42.6001" id="Fill-620" fill="#602600"></path>
                <path d="M27.7393,32.1416 L27.7393,32.1416 C27.2633,32.4166 26.6483,32.2526 26.3733,31.7756 C26.0983,31.2996 26.2623,30.6846 26.7393,30.4106 C27.2153,30.1346 27.8293,30.2996 28.1053,30.7756 C28.3803,31.2516 28.2153,31.8666 27.7393,32.1416" id="Fill-621" fill="#ECF0F1"></path>
                <path d="M29.7402,35.605 L29.7402,35.605 C29.2642,35.88 28.6492,35.716 28.3742,35.24 C28.0992,34.763 28.2632,34.148 28.7402,33.874 C29.2162,33.598 29.8302,33.763 30.1062,34.239 C30.3812,34.715 30.2162,35.33 29.7402,35.605" id="Fill-622" fill="#ECF0F1"></path>
                <path d="M9,5.6875 L23.397,28.6245 C23.618,27.9415 24.071,27.3315 24.738,26.9465 C24.982,26.8055 25.241,26.7165 25.503,26.6505 L25.604,26.4465 C26.729,22.2415 24.699,18.8845 22.698,15.4205 C20.697,11.9575 14.664,2.4155 9,5.6875" id="Fill-623" fill="#BDC3C7"></path>
                <path d="M4,0 L4,48 C4,48.035 4.017,48.064 4.02,48.099 C4.337,48.036 4.664,48 5,48 L6,48 L6,0 L4,0 Z" id="Fill-1189" fill="#556080"></path>
                <polygon id="Fill-1190" fill="#556080" points="42 48 44 48 44 0 42 0"></polygon>
                <path d="M46.5801,58 L5.0001,58 C2.2391,58 0.0001,55.761 0.0001,53 C0.0001,50.239 2.2391,48 5.0001,48 L48.0001,48 L48.0001,56.58 C48.0001,57.364 47.3641,58 46.5801,58" id="Fill-1191" fill="#F9EBB0"></path>
                <path d="M9,54 L4,54 C3.448,54 3,53.552 3,53 C3,52.448 3.448,52 4,52 L9,52 C9.552,52 10,52.448 10,53 C10,53.552 9.552,54 9,54" id="Fill-1192" fill="#D3A200"></path>
                <path d="M38,54 L13,54 C12.448,54 12,53.552 12,53 C12,52.448 12.448,52 13,52 L38,52 C38.552,52 39,52.448 39,53 C39,53.552 38.552,54 38,54" id="Fill-1193" fill="#D3A200"></path>
                <path d="M44.7031,0 L42.7031,0 C44.5241,0 46.0001,1.476 46.0001,3.297 L46.0001,48 L48.0001,48 L48.0001,3.297 C48.0001,1.476 46.5241,0 44.7031,0" id="Fill-1375" fill="#002498"></path>
                <path d="M46,48 L46,56.58 C46,57.364 45.364,58 44.58,58 L46.58,58 C47.364,58 48,57.364 48,56.58 L48,48 L46,48 Z" id="Fill-1376" fill="#BB9600"></path>
                <path d="M46.5801,58 L5.0001,58 C2.2391,58 0.0001,55.761 0.0001,53 C0.0001,50.239 2.2391,48 5.0001,48 L48.0001,48 L48.0001,56.58 C48.0001,57.364 47.3641,58 46.5801,58 Z" id="Stroke-1476" stroke="#000000" stroke-width="2" stroke-linecap="round" stroke-linejoin="round"></path>
                <path d="M9,53 L4,53" id="Stroke-1477" stroke="#000000" stroke-width="2" stroke-linecap="round" stroke-linejoin="round"></path>
                <path d="M38,53 L13,53" id="Stroke-1478" stroke="#000000" stroke-width="2" stroke-linecap="round" stroke-linejoin="round"></path>
                <path d="M0,41 L0,53 C0,50.239 2.238,48 5,48 L48,48 L48,3.297 C48,1.476 46.524,0 44.703,0 L2.902,0 C1.299,0 0,1.299 0,2.902 L0,13 L0,41 Z" id="Stroke-1479" stroke="#000000" stroke-width="2" stroke-linecap="round" stroke-linejoin="round"></path>
                <path d="M43,0 L43,48" id="Stroke-1480" stroke="#000000" stroke-width="2" stroke-linecap="round" stroke-linejoin="round"></path>
                <path d="M5,0 L5,48" id="Stroke-1481" stroke="#000000" stroke-width="2" stroke-linecap="round" stroke-linejoin="round"></path>
                <path d="M20.3286,35.5786 L20.3286,35.5786 C19.8426,35.3226 19.6536,34.7146 19.9106,34.2276 C20.1666,33.7416 20.7746,33.5526 21.2616,33.8086 C21.7476,34.0656 21.9356,34.6736 21.6796,35.1596 C21.4236,35.6466 20.8156,35.8346 20.3286,35.5786" id="Fill-1488" fill="#000000"></path>
                <path d="M25.8652,25.0708 L35.4482,6.8808" id="Stroke-1489" stroke="#000000" stroke-width="2" stroke-linecap="round" stroke-linejoin="round"></path>
                <path d="M38.9878,8.7456 L34.1228,17.9796 C33.0968,19.9256 30.6658,20.6796 28.7188,19.6536 C26.7728,18.6276 26.0198,16.1966 27.0448,14.2496 L31.9098,5.0166" id="Stroke-1490" stroke="#000000" stroke-width="2" stroke-linecap="round" stroke-linejoin="round"></path>
                <path d="M33.9521,42.6001 L33.9521,42.6001 C32.5231,43.4251 30.6791,42.9321 29.8531,41.5031 L23.6401,31.0451 C22.8151,29.6161 23.3091,27.7721 24.7381,26.9461 C26.1661,26.1211 28.0111,26.6151 28.8361,28.0431 L35.0491,38.5011 C35.8741,39.9301 35.3811,41.7741 33.9521,42.6001 Z" id="Stroke-1491" stroke="#000000" stroke-width="2" stroke-linecap="round" stroke-linejoin="round"></path>
                <path d="M27.7393,32.1416 L27.7393,32.1416 C27.2633,32.4166 26.6483,32.2526 26.3733,31.7756 C26.0983,31.2996 26.2623,30.6846 26.7393,30.4106 C27.2153,30.1346 27.8293,30.2996 28.1053,30.7756 C28.3803,31.2516 28.2153,31.8666 27.7393,32.1416" id="Fill-1492" fill="#000000"></path>
                <path d="M29.7402,35.605 L29.7402,35.605 C29.2642,35.88 28.6492,35.716 28.3742,35.24 C28.0992,34.763 28.2632,34.148 28.7402,33.874 C29.2162,33.598 29.8302,33.763 30.1062,34.239 C30.3812,34.715 30.2162,35.33 29.7402,35.605" id="Fill-1493" fill="#000000"></path>
                <path d="M9,5.6875 L23.397,28.6245 C23.618,27.9415 24.071,27.3315 24.738,26.9465 C24.982,26.8055 25.241,26.7165 25.503,26.6505 L25.604,26.4465 C26.729,22.2415 24.699,18.8845 22.698,15.4205 C20.697,11.9575 14.664,2.4155 9,5.6875 Z" id="Stroke-1494" stroke="#000000" stroke-width="2" stroke-linecap="round" stroke-linejoin="round"></path>
                <path d="M23.3975,28.625 L22.2135,26.74 C21.6885,27.011 21.2325,27.427 20.9375,27.987 L15.3435,38.604 C14.5745,40.063 15.1395,41.887 16.5995,42.656 C18.0595,43.425 19.8825,42.86 20.6525,41.4 L24.9315,33.279 L23.6405,31.045 C23.2005,30.283 23.1455,29.406 23.3975,28.625 Z" id="Stroke-2070" stroke="#000000" stroke-width="2" stroke-linecap="round" stroke-linejoin="round"></path>
            </g>
        </g>
    </g>
</svg>