<?xml version="1.0" encoding="UTF-8" standalone="no"?>
<svg width="54px" height="55px" viewBox="0 0 54 55" version="1.1" xmlns="http://www.w3.org/2000/svg" xmlns:xlink="http://www.w3.org/1999/xlink">
    <!-- Generator: Sketch 40.1 (33804) - http://www.bohemiancoding.com/sketch -->
    <title>96 - Settings (interaction, communication, essential, retro)</title>
    <desc>Created with Sketch.</desc>
    <defs></defs>
    <g id="Page-1" stroke="none" stroke-width="1" fill="none" fill-rule="evenodd">
        <g id="Icons" transform="translate(-602.000000, -3699.000000)">
            <g id="96---Settings-(interaction,-communication,-essential,-retro)" transform="translate(603.000000, 3700.000000)">
                <path d="M26.5,31.36 C24.015,31.36 22,29.345 22,26.86 C22,24.375 24.015,22.36 26.5,22.36 C28.985,22.36 31,24.375 31,26.86 C31,29.345 28.985,31.36 26.5,31.36 L26.5,31.36 Z M48.872,23.258 C44.229,22.366 42.1,16.941 44.896,13.129 L46.86,10.45 L42.617,6.207 L39.979,7.994 C36.065,10.646 30.724,8.315 30.005,3.643 L29.5,0.36 L23.5,0.36 L22.723,4.401 C21.85,8.941 16.618,11.108 12.789,8.515 L9.383,6.207 L5.14,10.45 L7.104,13.129 C9.9,16.941 7.771,22.366 3.128,23.258 L0,23.86 L0,29.86 L3.283,30.365 C7.955,31.084 10.286,36.425 7.634,40.339 L5.847,42.977 L10.09,47.22 L12.768,45.256 C16.581,42.46 22.006,44.589 22.898,49.232 L23.5,52.36 L29.5,52.36 L29.855,50.051 C30.59,45.275 36.129,42.98 40.026,45.838 L41.91,47.22 L46.153,42.977 L44.366,40.339 C41.714,36.425 44.045,31.084 48.717,30.365 L52,29.86 L52,23.86 L48.872,23.258 Z" id="Fill-215" fill="#C7CBC7"></path>
                <path d="M26.5,31.36 C24.015,31.36 22,29.345 22,26.86 C22,24.375 24.015,22.36 26.5,22.36 C28.985,22.36 31,24.375 31,26.86 C31,29.345 28.985,31.36 26.5,31.36 M26.5,17.36 C21.253,17.36 17,21.613 17,26.86 C17,32.107 21.253,36.36 26.5,36.36 C31.747,36.36 36,32.107 36,26.86 C36,21.613 31.747,17.36 26.5,17.36" id="Fill-2891" fill="#556080"></path>
                <path d="M52,23.86 L48.872,23.258 C44.229,22.366 42.1,16.941 44.896,13.128 L46.86,10.45 L42.617,6.207 L39.979,7.994 C36.065,10.646 30.724,8.315 30.005,3.643 L29.5,0.36 L23.5,0.36 L22.723,4.4 C21.85,8.941 16.618,11.108 12.79,8.515 L9.383,6.207 L5.14,10.45 L7.104,13.128 C9.9,16.941 7.771,22.366 3.128,23.258 L0,23.86 L0,29.86 L3.283,30.365 C7.955,31.084 10.286,36.425 7.634,40.339 L5.847,42.977 L10.09,47.22 L12.768,45.256 C16.581,42.46 22.006,44.589 22.898,49.232 L23.5,52.36 L29.5,52.36 L29.855,50.051 C30.59,45.275 36.129,42.98 40.026,45.838 L41.91,47.22 L46.153,42.977 L44.366,40.339 C41.714,36.425 44.045,31.084 48.717,30.365 L52,29.86 L52,23.86 L52,23.86 Z" id="Stroke-4439" stroke="#1A0E12" stroke-width="2" stroke-linecap="round" stroke-linejoin="round"></path>
                <path d="M36,26.86 C36,32.107 31.747,36.36 26.5,36.36 C21.253,36.36 17,32.107 17,26.86 C17,21.613 21.253,17.36 26.5,17.36 C31.747,17.36 36,21.613 36,26.86 L36,26.86 Z" id="Stroke-4440" stroke="#000000" stroke-width="2" stroke-linecap="round"></path>
                <path d="M31,26.86 C31,29.345 28.985,31.36 26.5,31.36 C24.015,31.36 22,29.345 22,26.86 C22,24.375 24.015,22.36 26.5,22.36 C28.985,22.36 31,24.375 31,26.86 L31,26.86 Z" id="Stroke-4510" stroke="#000000" stroke-width="2" stroke-linecap="round"></path>
            </g>
        </g>
    </g>
</svg>