<?xml version="1.0" encoding="UTF-8" standalone="no"?>
<svg width="57px" height="58px" viewBox="0 0 57 58" version="1.1" xmlns="http://www.w3.org/2000/svg" xmlns:xlink="http://www.w3.org/1999/xlink">
    <!-- Generator: Sketch 40.1 (33804) - http://www.bohemiancoding.com/sketch -->
    <title>125 - Store (business, finance, marketing, flat)</title>
    <desc>Created with Sketch.</desc>
    <defs></defs>
    <g id="Page-1" stroke="none" stroke-width="1" fill="none" fill-rule="evenodd">
        <g id="Icons" transform="translate(-721.000000, -838.000000)">
            <g id="Store" transform="translate(721.000000, 838.000000)">
                <polygon id="Fill-187" fill="#F0785A" fill-rule="evenodd" points="2 58 56 58 56 11 2 11"></polygon>
                <polygon id="Fill-188" fill="#B35A5B" fill-rule="evenodd" points="4 29 32 29 32 52 4 52"></polygon>
                <polygon id="Fill-189" fill="#B0D3F0" fill-rule="evenodd" points="6 31 30 31 30 50 6 50"></polygon>
                <path d="M15,11 L1.378,11 C1.189,11 1.052,10.819 1.104,10.637 L5.166,1.813 C5.674,0.708 6.779,0 7.996,0 L17,0 L15,11" id="Fill-231" fill="#ED7161" fill-rule="evenodd"></path>
                <polyline id="Fill-232" fill="#ED7161" fill-rule="evenodd" points="43 11 29 11 29 0 41 0 43 11"></polyline>
                <path d="M22,25 L22,25 C18.134,25 15,21.866 15,18 L15,11 L29,11 L29,18 C29,21.866 25.866,25 22,25" id="Fill-233" fill="#F0C419" fill-rule="evenodd"></path>
                <path d="M50,25 L50,25 C46.134,25 43,21.866 43,18 L43,11 L56.893,11 C56.952,11 57,11.048 57,11.107 L57,18 C57,21.866 53.866,25 50,25" id="Fill-234" fill="#F0C419" fill-rule="evenodd"></path>
                <polyline id="Fill-598" fill="#F3D55B" fill-rule="evenodd" points="29 11 15 11 17 0 29 0 29 11"></polyline>
                <path d="M56.645,11 L43,11 L41,0 L50.004,0 C51.22,0 52.326,0.708 52.834,1.814 L56.903,10.659 C56.951,10.83 56.823,11 56.645,11" id="Fill-599" fill="#F3D55B" fill-rule="evenodd"></path>
                <path d="M8,25 L8,25 C4.134,25 1,21.866 1,18 L1,11.282 C1,11.126 1.126,11 1.282,11 L15,11 L15,18 C15,21.866 11.866,25 8,25" id="Fill-600" fill="#D36259" fill-rule="evenodd"></path>
                <path d="M36,25 L36,25 C32.134,25 29,21.866 29,18 L29,11 L43,11 L43,18 C43,21.866 39.866,25 36,25" id="Fill-601" fill="#D36259" fill-rule="evenodd"></path>
                <polygon id="Fill-602" fill="#B35A5B" fill-rule="evenodd" points="36 29 52 29 52 58 36 58"></polygon>
                <polygon id="Fill-603" fill="#B0D3F0" fill-rule="evenodd" points="38 31 50 31 50 56 38 56"></polygon>
                <path d="M48,43 L48,46" id="Stroke-604" stroke="#FFFFFF" stroke-width="2" stroke-linecap="round"></path>
                <path d="M17,38 C17.256,38 17.512,37.902 17.707,37.707 L21.707,33.707 C22.098,33.316 22.098,32.684 21.707,32.293 C21.316,31.902 20.684,31.902 20.293,32.293 L16.293,36.293 C15.902,36.684 15.902,37.316 16.293,37.707 C16.488,37.902 16.744,38 17,38" id="Fill-1008" fill="#FFFFFF" fill-rule="evenodd"></path>
                <path d="M17,43 C17.256,43 17.512,42.902 17.707,42.707 L19.707,40.707 C20.098,40.316 20.098,39.684 19.707,39.293 C19.316,38.902 18.684,38.902 18.293,39.293 L16.293,41.293 C15.902,41.684 15.902,42.316 16.293,42.707 C16.488,42.902 16.744,43 17,43" id="Fill-1009" fill="#FFFFFF" fill-rule="evenodd"></path>
                <path d="M20.29,37.29 C20.109,37.479 20,37.74 20,38 C20,38.26 20.109,38.52 20.29,38.7 C20.479,38.89 20.73,39 21,39 C21.26,39 21.519,38.89 21.71,38.71 C21.89,38.52 22,38.26 22,38 C22,37.74 21.89,37.479 21.71,37.29 C21.34,36.92 20.66,36.92 20.29,37.29" id="Fill-1010" fill="#FFFFFF" fill-rule="evenodd"></path>
                <path d="M22.293,36.707 C22.488,36.902 22.744,37 23,37 C23.256,37 23.512,36.902 23.707,36.707 L26.707,33.707 C27.098,33.316 27.098,32.684 26.707,32.293 C26.316,31.902 25.684,31.902 25.293,32.293 L22.293,35.293 C21.902,35.684 21.902,36.316 22.293,36.707" id="Fill-1011" fill="#FFFFFF" fill-rule="evenodd"></path>
                <path d="M25.293,37.293 L16.293,46.293 C15.902,46.684 15.902,47.316 16.293,47.707 C16.488,47.902 16.744,48 17,48 C17.256,48 17.512,47.902 17.707,47.707 L26.707,38.707 C27.098,38.316 27.098,37.684 26.707,37.293 C26.316,36.902 25.684,36.902 25.293,37.293" id="Fill-1012" fill="#FFFFFF" fill-rule="evenodd"></path>
                <path d="M28.71,35.29 C28.34,34.92 27.66,34.92 27.29,35.29 C27.109,35.479 27,35.74 27,36 C27,36.26 27.109,36.52 27.29,36.71 C27.48,36.89 27.74,37 28,37 C28.26,37 28.519,36.89 28.71,36.71 C28.89,36.52 29,36.26 29,36 C29,35.74 28.89,35.479 28.71,35.29" id="Fill-1013" fill="#FFFFFF" fill-rule="evenodd"></path>
                <path d="M7,58 L1,58 L0.084,52.505 C0.04,52.241 0.244,52 0.512,52 L8,52 L7,58" id="Fill-1032" fill="#CB8252" fill-rule="evenodd"></path>
                <path d="M4,52 L4,41" id="Stroke-1033" stroke="#7F6E5D" stroke-width="2"></path>
                <path d="M8.188,36.68 C8.492,35.912 8.709,35.055 8.545,34.236 C8.473,33.881 8.311,33.54 8.089,33.271 C7.714,32.816 7.55,32.162 7.679,31.56 C7.801,30.99 7.728,30.35 7.463,29.839 C6.98,28.908 6.019,28.387 5.063,28.252 C4.361,28.152 3.586,28.258 3.067,28.795 L2.448,29.328 C1.746,29.66 1.208,30.392 1.054,31.226 C0.971,31.677 1.002,32.151 1.131,32.589 C1.325,33.242 1.164,33.948 0.793,34.497 C-0.043,35.733 -0.264,37.504 0.352,38.906 C0.43,39.084 0.531,39.26 0.649,39.419 C1.052,39.962 1.205,40.682 1.036,41.363 C0.997,41.519 0.97,41.678 0.956,41.837 C0.89,42.565 1.038,43.293 1.188,44.004 C1.344,44.744 1.536,45.543 2.076,46.007 C2.808,46.635 3.869,46.392 4.707,45.959 C5.891,45.348 6.987,44.342 7.404,42.963 C7.648,42.158 7.59,41.224 7.264,40.467 C6.933,39.703 6.933,38.796 7.412,38.137 C7.73,37.7 7.985,37.194 8.188,36.68" id="Fill-1937" fill="#24AE5F" fill-rule="evenodd"></path>
            </g>
        </g>
    </g>
</svg>